<?xml version="1.0" standalone="no"?>
<svg viewBox="0 0 200 200" xmlns="http://www.w3.org/2000/svg">
  <path fill="#565BB5" d="M34,-61.3C43.2,-53.5,49.3,-42.7,59.2,-32C69.2,-21.3,83.1,-10.6,85.7,1.5C88.4,13.7,79.7,27.4,69.4,37.5C59.1,47.7,47.2,54.3,35.3,59.6C23.5,64.9,11.7,68.8,-2,72.2C-15.7,75.7,-31.5,78.7,-45.3,74.6C-59.1,70.5,-71,59.2,-76.8,45.5C-82.5,31.9,-82.1,16,-79,1.8C-76,-12.4,-70.3,-24.9,-64.8,-38.9C-59.3,-53,-54,-68.6,-43.2,-75.5C-32.4,-82.4,-16.2,-80.4,-1.9,-77.1C12.4,-73.8,24.8,-69,34,-61.3Z" transform="translate(100 100)" />
</svg>
